<mxfile host="Electron" agent="Mozilla/5.0 (Windows NT 10.0; Win64; x64) AppleWebKit/537.36 (KHTML, like Gecko) draw.io/24.7.17 Chrome/128.0.6613.36 Electron/32.0.1 Safari/537.36" version="24.7.17">
  <diagram name="Page-1" id="Q9jz1UthbEEBEvOOM0z-">
    <mxGraphModel dx="2172" dy="684" grid="1" gridSize="10" guides="1" tooltips="1" connect="1" arrows="1" fold="1" page="1" pageScale="1" pageWidth="850" pageHeight="1100" math="0" shadow="0">
      <root>
        <mxCell id="0" />
        <mxCell id="1" parent="0" />
        <mxCell id="8CLa1IewNhlTxt-WtjhJ-1" value="Score" style="rounded=1;arcSize=10;whiteSpace=wrap;html=1;align=center;" parent="1" vertex="1">
          <mxGeometry x="390" y="260" width="100" height="40" as="geometry" />
        </mxCell>
        <mxCell id="8CLa1IewNhlTxt-WtjhJ-2" value="Responsiveness" style="ellipse;whiteSpace=wrap;html=1;align=center;" parent="1" vertex="1">
          <mxGeometry x="380" y="170" width="120" height="40" as="geometry" />
        </mxCell>
        <mxCell id="8CLa1IewNhlTxt-WtjhJ-3" value="CreateInterest" style="ellipse;whiteSpace=wrap;html=1;align=center;" parent="1" vertex="1">
          <mxGeometry x="250" y="170" width="120" height="40" as="geometry" />
        </mxCell>
        <mxCell id="8CLa1IewNhlTxt-WtjhJ-4" value="TimeManagement" style="ellipse;whiteSpace=wrap;html=1;align=center;" parent="1" vertex="1">
          <mxGeometry x="510" y="170" width="120" height="40" as="geometry" />
        </mxCell>
        <mxCell id="8CLa1IewNhlTxt-WtjhJ-5" value="Experience" style="ellipse;whiteSpace=wrap;html=1;align=center;" parent="1" vertex="1">
          <mxGeometry x="120" y="170" width="120" height="40" as="geometry" />
        </mxCell>
        <mxCell id="8CLa1IewNhlTxt-WtjhJ-6" value="" style="endArrow=none;html=1;rounded=0;" parent="1" source="8CLa1IewNhlTxt-WtjhJ-5" target="8CLa1IewNhlTxt-WtjhJ-1" edge="1">
          <mxGeometry relative="1" as="geometry">
            <mxPoint x="300" y="290" as="sourcePoint" />
            <mxPoint x="460" y="290" as="targetPoint" />
          </mxGeometry>
        </mxCell>
        <mxCell id="8CLa1IewNhlTxt-WtjhJ-7" value="" style="endArrow=none;html=1;rounded=0;" parent="1" source="8CLa1IewNhlTxt-WtjhJ-3" target="8CLa1IewNhlTxt-WtjhJ-1" edge="1">
          <mxGeometry relative="1" as="geometry">
            <mxPoint x="232" y="214" as="sourcePoint" />
            <mxPoint x="400" y="273" as="targetPoint" />
          </mxGeometry>
        </mxCell>
        <mxCell id="8CLa1IewNhlTxt-WtjhJ-8" value="" style="endArrow=none;html=1;rounded=0;" parent="1" source="8CLa1IewNhlTxt-WtjhJ-2" target="8CLa1IewNhlTxt-WtjhJ-1" edge="1">
          <mxGeometry relative="1" as="geometry">
            <mxPoint x="346" y="218" as="sourcePoint" />
            <mxPoint x="421" y="270" as="targetPoint" />
          </mxGeometry>
        </mxCell>
        <mxCell id="8CLa1IewNhlTxt-WtjhJ-9" value="" style="endArrow=none;html=1;rounded=0;" parent="1" source="8CLa1IewNhlTxt-WtjhJ-4" target="8CLa1IewNhlTxt-WtjhJ-1" edge="1">
          <mxGeometry relative="1" as="geometry">
            <mxPoint x="450" y="220" as="sourcePoint" />
            <mxPoint x="450" y="270" as="targetPoint" />
          </mxGeometry>
        </mxCell>
        <mxCell id="DNWr9jaYFhZXfA8qoQck-1" value="Scorer" style="ellipse;whiteSpace=wrap;html=1;align=center;" parent="1" vertex="1">
          <mxGeometry x="640" y="170" width="100" height="40" as="geometry" />
        </mxCell>
        <mxCell id="DNWr9jaYFhZXfA8qoQck-2" value="" style="endArrow=none;html=1;rounded=0;" parent="1" source="8CLa1IewNhlTxt-WtjhJ-1" target="DNWr9jaYFhZXfA8qoQck-1" edge="1">
          <mxGeometry relative="1" as="geometry">
            <mxPoint x="600" y="280" as="sourcePoint" />
            <mxPoint x="760" y="280" as="targetPoint" />
          </mxGeometry>
        </mxCell>
        <mxCell id="f_FNEFJrzXeduvTNrzh5-1" value="Course" style="ellipse;whiteSpace=wrap;html=1;align=center;" vertex="1" parent="1">
          <mxGeometry x="-10" y="170" width="120" height="40" as="geometry" />
        </mxCell>
        <mxCell id="f_FNEFJrzXeduvTNrzh5-2" value="" style="endArrow=none;html=1;rounded=0;" edge="1" parent="1" source="8CLa1IewNhlTxt-WtjhJ-1" target="f_FNEFJrzXeduvTNrzh5-1">
          <mxGeometry width="50" height="50" relative="1" as="geometry">
            <mxPoint x="60" y="350" as="sourcePoint" />
            <mxPoint x="110" y="300" as="targetPoint" />
          </mxGeometry>
        </mxCell>
      </root>
    </mxGraphModel>
  </diagram>
</mxfile>
